<?xml version="1.0" encoding="UTF-8"?>
<svg id="Capa_2" xmlns="http://www.w3.org/2000/svg" viewBox="0 0 71.51 71.51">
  <defs>
    <style>
      .cls-1 {
        fill: #fff;
      }

      .cls-2 {
        fill: #797a7a;
      }
    </style>
  </defs>
  <g id="Capa_1-2" data-name="Capa_1">
    <g>
      <rect class="cls-1" width="71.51" height="71.51"/>
      <g>
        <path class="cls-2" d="M21.06,34.26v17.85l1.58,1.58h10.42c.01-2.41.15-5.07.5-7.92.53-4.39,1.43-8.25,2.41-11.5v-15c-.09-1.35-1.15-2.41-2.41-2.5-1.39-.1-2.68,1.01-2.79,2.5-.4,3.17-.81,6.33-1.21,9.5,0,.41-.01,1.77-1,3-1.37,1.71-3.45,1.72-3.72,1.72-1.26.26-2.52.52-3.78.78Z"/>
        <path class="cls-2" d="M36.75,53.68l3.8-19.92c.35-.34,2.17-2.02,5-2,2.76.02,4.53,1.65,4.89,2-1.16,6.64-2.31,13.28-3.47,19.92-1.03.45-2.95,1.14-5.42,1.08-2.15-.05-3.82-.64-4.8-1.08Z"/>
      </g>
    </g>
  </g>
</svg>