<?xml version="1.0" encoding="UTF-8"?>
<svg id="Capa_2" xmlns="http://www.w3.org/2000/svg" viewBox="0 0 71.51 71.51">
  <defs>
    <style>
      .cls-1 {
        fill: #fff;
      }

      .cls-2 {
        fill: #797a7a;
      }
    </style>
  </defs>
  <g id="Capa_1-2" data-name="Capa_1">
    <g>
      <rect class="cls-1" width="71.51" height="71.51"/>
      <g>
        <g>
          <path class="cls-2" d="M35.75,39.75c2.76,0,5.48.43,8.1,1.27.24.92.38,1.87.4,2.82.04,1.32-.12,2.62-.49,3.88-1.73.92-4.53,2.03-8.02,2.03-.14,0-.28,0-.42,0-3.2-.08-5.79-1.05-7.59-2.03-.36-1.27-.53-2.57-.49-3.89.03-.95.16-1.9.4-2.82,2.48-.8,5.04-1.22,7.65-1.27.15,0,.3,0,.45,0M35.75,36.75c-.17,0-.33,0-.5,0-4.34.07-7.8,1.09-10,1.93-.43,1.16-.94,2.9-1,5.07-.08,2.64.53,4.74,1,6,1.54.96,5.09,2.88,10,3,.17,0,.33,0,.5,0,5.23,0,9.02-2.09,10.5-3.01.47-1.26,1.08-3.36,1-6-.06-2.17-.57-3.91-1-5.07-2.23-.85-5.89-1.94-10.5-1.94h0Z"/>
          <path class="cls-2" d="M35.75,21.75c2.76,0,5,2.24,5,5s-2.24,5-5,5-5-2.24-5-5,2.24-5,5-5M35.75,18.75c-4.42,0-8,3.58-8,8s3.58,8,8,8,8-3.58,8-8-3.58-8-8-8h0Z"/>
        </g>
        <g>
          <path class="cls-2" d="M20.23,48.53c-1.27-.77-3.45-2.47-3.71-5.13-.34-3.38,2.6-5.75,4.55-7.32.27-.21.54-.42.82-.62-.28-.16-.55-.34-.81-.54-1.52-1.16-2.45-2.83-2.56-4.59-.2-3.32,2.51-6.39,6.05-6.84l.38,2.97c-2.17.28-3.53,2.13-3.44,3.68.05.88.57,1.77,1.38,2.39.94.72,2.14.98,3.31.74l.81,2.88c-1.49.53-2.85,1.28-4.06,2.25-1.53,1.23-3.62,2.92-3.45,4.68.14,1.42,1.65,2.48,2.29,2.87l-1.56,2.56Z"/>
          <path class="cls-2" d="M51.28,48.53c1.27-.77,3.45-2.47,3.71-5.13.34-3.38-2.6-5.75-4.55-7.32-.27-.21-.54-.42-.82-.62.28-.16.55-.34.81-.54,1.52-1.16,2.45-2.83,2.56-4.59.2-3.32-2.51-6.39-6.05-6.84l-.38,2.97c2.17.28,3.53,2.13,3.44,3.68-.05.88-.57,1.77-1.38,2.39-.94.72-2.14.98-3.31.74l-.81,2.88c1.49.53,2.85,1.28,4.06,2.25,1.53,1.23,3.62,2.92,3.45,4.68-.14,1.42-1.65,2.48-2.29,2.87l1.56,2.56Z"/>
        </g>
      </g>
    </g>
  </g>
</svg>